<?xml version="1.0" encoding="UTF-8" standalone="no"?><!DOCTYPE svg PUBLIC "-//W3C//DTD SVG 1.1//EN" "http://www.w3.org/Graphics/SVG/1.1/DTD/svg11.dtd"><svg width="100%" height="100%" viewBox="0 0 6084 1996" version="1.1" xmlns="http://www.w3.org/2000/svg" xmlns:xlink="http://www.w3.org/1999/xlink" xml:space="preserve" xmlns:serif="http://www.serif.com/" style="fill-rule:evenodd;clip-rule:evenodd;stroke-linejoin:round;stroke-miterlimit:2;"><g><g><path d="M2387.61,631.675l2.466,4.267l314.817,544.141l314.825,-544.141l2.458,-4.267l56.742,-0l0.017,8.55l1.016,720.642l0.017,8.583l-68.6,-0l-0.017,-8.55l-0.966,-584.883l-285.725,493.4l-2.476,4.283l-35.608,-0l-2.466,-4.267l-285.667,-491.375l-0,591.392l-68.6,-0l-0,-737.775l57.767,-0Z" style="fill:#333;fill-rule:nonzero;"/></g><g><path d="M3243.52,814.917l2.267,5.066l207.341,463.305l207.35,-463.305l2.259,-5.066l71.333,-0l-5.467,12.087l-275.85,610.379c-21.141,48.63 -45.841,83.475 -74.325,104.38c-28.625,21.008 -62.5,31.512 -101.333,31.512c-25.733,0 -49.925,-4.3 -72.533,-12.904c-22.792,-8.683 -42.234,-21.4 -58.225,-38.121l-4.709,-4.929l3.734,-5.696l25.733,-39.129l5.867,-8.888l7.425,7.617c25.858,26.496 56.924,39.629 93.741,39.613c24.225,0.016 44.667,-6.592 61.65,-19.796c17.267,-13.425 33.667,-37.05 48.917,-70.842l27.258,-61.358l-240.35,-531.838l-5.458,-12.087l73.375,-0Z" style="fill:#333;fill-rule:nonzero;"/></g></g><text x="3690.09px" y="1369.45px" style="font-family:'Montserrat-Bold', 'Montserrat';font-weight:700;font-size:1029.97px;fill:#333;">App</text><g><g><g><path d="M4861.18,1689.67l0.672,1.162l85.768,148.246l85.771,-148.246l0.67,-1.162l15.459,-0l0.004,2.329l0.277,196.331l0.005,2.339l-18.69,-0l-0.004,-2.33l-0.264,-159.345l-77.842,134.422l-0.675,1.167l-9.701,-0l-0.672,-1.163l-77.827,-133.87l0,161.119l-18.689,-0l-0,-200.999l15.738,-0Z" style="fill:#333;fill-rule:nonzero;"/></g><g><path d="M5094.36,1739.6l0.618,1.38l56.488,126.223l56.49,-126.223l0.615,-1.38l19.434,-0l-1.489,3.293l-75.152,166.292c-5.76,13.248 -12.489,22.741 -20.249,28.437c-7.799,5.723 -17.028,8.585 -27.608,8.585c-7.01,-0 -13.601,-1.172 -19.761,-3.516c-6.209,-2.365 -11.506,-5.83 -15.862,-10.385l-1.283,-1.343l1.017,-1.552l7.011,-10.66l1.598,-2.422l2.023,2.075c7.045,7.219 15.509,10.797 25.539,10.792c6.6,0.005 12.169,-1.795 16.796,-5.393c4.704,-3.657 9.172,-10.094 13.327,-19.3l7.426,-16.716l-65.481,-144.894l-1.487,-3.293l19.99,-0Z" style="fill:#333;fill-rule:nonzero;"/></g><g><path d="M5333.47,1718.74l-50.674,-0l0,142.86l50.674,0c15.54,0.004 29.149,-3.001 40.868,-8.997c11.67,-5.969 20.64,-14.311 26.956,-25.053c6.33,-10.752 9.497,-23.198 9.497,-37.379c-0,-14.183 -3.167,-26.626 -9.497,-37.384c-6.316,-10.739 -15.286,-19.077 -26.956,-25.045c-11.719,-5.998 -25.328,-9.002 -40.868,-9.002m1.685,-29.067c21.111,-0 39.892,4.195 56.313,12.594c16.467,8.429 29.276,20.273 38.384,35.522c9.104,15.234 13.65,32.712 13.65,52.382c-0,19.673 -4.546,37.146 -13.65,52.382c-9.108,15.244 -21.917,27.094 -38.384,35.517c-16.421,8.406 -35.202,12.602 -56.313,12.602l-85.074,-0.005l-0,-200.994l85.074,-0Z" style="fill:#333;fill-rule:nonzero;"/></g><g><path d="M5544.42,1763.34c-12.339,-0 -22.579,3.723 -30.831,11.178c-7.965,6.889 -12.022,16.679 -14.017,26.784l89.687,0c-0.967,-10.553 -7.127,-19.124 -14.017,-26.652c-8.257,-7.546 -18.49,-11.31 -30.822,-11.31m10.67,-26.759c22.797,5.809 13.538,2.021 28.507,9.363c11.497,6.668 20.498,16.007 26.962,27.976c6.457,11.945 9.679,25.602 9.679,40.937c-0,2.151 -0.193,4.944 -0.575,8.39l-0.231,2.074l-119.808,0c1.133,11.183 8.13,19.895 15.831,27.409c9.388,7.594 21.066,11.399 35.133,11.399c17.125,0 30.795,-5.716 41.186,-17.184l1.778,-1.961l1.723,2.013l14.864,17.39l1.301,1.519l-1.301,1.513c-6.974,8.135 -15.647,14.339 -25.988,18.591c-10.294,4.233 -21.768,6.344 -34.4,6.344c-16.079,-0 -30.382,-3.31 -42.885,-9.945c-12.541,-6.66 -22.26,-15.99 -29.123,-27.969c-6.843,-11.953 -10.26,-25.441 -10.26,-40.427c-0,-14.786 3.319,-28.174 9.969,-40.119c6.659,-11.961 15.842,-21.293 27.53,-27.961c11.946,-7.256 25.773,-9.183 39.438,-9.98l10.67,0.628Z" style="fill:#333;fill-rule:nonzero;"/></g><g><rect x="5652.87" y="1677.89" width="31.592" height="212.778" style="fill:#333;"/></g><g><path d="M5735.81,1737.35l0.61,1.403l49.739,113.993l49.196,-113.984l0.608,-1.412l31.478,-0l-1.444,3.273l-72.067,163.482c-6.507,15.507 -14.18,26.507 -23.08,32.961c-8.918,6.468 -19.638,9.697 -32.08,9.697c-7.549,-0 -14.861,-1.21 -21.931,-3.631c-7.149,-2.449 -13.114,-6.048 -17.861,-10.795l-1.26,-1.258l0.881,-1.548l11.497,-20.195l1.478,-2.588l2.157,2.052c7.242,6.891 15.549,10.299 25.039,10.299c6.042,-0 11.002,-1.569 14.966,-4.686c4.037,-3.181 7.797,-8.802 11.243,-16.953l4.329,-9.424l-65.208,-147.408l-1.451,-3.278l33.161,-0Z" style="fill:#333;fill-rule:nonzero;"/></g></g><text x="3714.87px" y="1861.61px" style="font-family:'Montserrat-Light', 'Montserrat';font-weight:300;font-size:181.179px;fill:#333;">po<tspan x="3946.78px 4100.23px 4208.4px 4277.24px " y="1861.61px 1861.61px 1861.61px 1861.61px ">were</tspan>d b<tspan x="4673.85px " y="1861.61px ">y</tspan></text></g><g><path d="M1495.37,498.454l-1495.37,498.459l996.913,-996.913l498.454,498.454Z" style="fill:#14dd8b;fill-rule:nonzero;"/></g><g><path d="M1495.37,1495.37l-498.454,498.458l-996.913,-996.913l1495.37,498.455Z" style="fill:#14dd8b;fill-rule:nonzero;"/></g><g><path d="M1993.83,996.912l-404.995,404.995l-1214.99,-404.995l1214.99,-404.996l404.995,404.996Z" style="fill:#ffc217;fill-rule:nonzero;"/></g></svg>